<svg xmlns="http://www.w3.org/2000/svg" viewBox="0 0 64 64" fill="none" aria-hidden="true">
  <!-- 흰색 두개골: 눈·코 구멍, 턱·이빨. 턱 아래 잔여 돌기 없음 -->
  <path
    fill="#ffffff"
    fill-rule="evenodd"
    d="M32 4C19 4 9 14.2 9 27c0 8.2 3.9 14.2 9.2 18.1V48c0 1.1.4 2.1 1.1 2.9L22 55.5c.25.4.7.6 1.15.6h17.7c.45 0 .9-.2 1.15-.6L41.7 50.9c.7-.8 1.1-1.8 1.1-2.9v-2.9C48.1 41.2 52 35.2 52 27 52 14.2 42 4 32 4zM21.5 22.5a5.6 6.2 0 1 0 11.2 0 5.6 6.2 0 1 0-11.2 0zm10 0a5.6 6.2 0 1 0 11.2 0 5.6 6.2 0 1 0-11.2 0zM32 29c-2.5 0-4.5 1.6-5 3.6-.1.5.3 1 .8 1h8.4c.5 0 .9-.5.8-1C36.5 30.6 34.5 29 32 29z"
  />
  <path
    fill="#ffffff"
    d="M22 42h20v8.2c0 1.15-.65 2.1-1.65 2.45-3.3.7-13.4.7-16.7 0C22.65 52.3 22 51.35 22 50.2V42z"
  />
  <path
    fill="none"
    stroke="rgba(0,0,0,0.55)"
    stroke-width="1.15"
    d="M25.2 42.2v8M28.4 42.2v8M31.6 42.2v8M34.8 42.2v8M38 42.2v8M25.6 46.4h12.8"
  />
</svg>
