<svg xmlns="http://www.w3.org/2000/svg" viewBox="0 0 64 64" fill="none" aria-hidden="true">
  <path
    fill="#ffffff"
    fill-rule="evenodd"
    d="M32 3.5C18.2 3.5 8 13.8 8 27.2c0 8.6 4.1 14.8 9.8 18.6.5 1.6.8 3.2.8 4.6v2.4c0 1.3-.35 2.5-.95 3.6L15.4 61c-.25.7.25 1.45 1.05 1.45h5.5c.35 0 .68-.2.85-.52L26.4 54h11.2l3.6 7.93c.17.32.5.52.85.52h5.5c.8 0 1.3-.75 1.05-1.45l-2.25-5.2c-.6-1.1-.95-2.3-.95-3.6v-2.4c0-1.4.3-3 .8-4.6C51.9 42 56 35.8 56 27.2 56 13.8 45.8 3.5 32 3.5zm-10.8 18a5.9 6.5 0 1 0 11.8 0 5.9 6.5 0 1 0-11.8 0zm10 0a5.9 6.5 0 1 0 11.8 0 5.9 6.5 0 1 0-11.8 0zM32 28.6c-2.7 0-4.8 1.75-5.35 3.95-.12.55.32 1.05.9 1.05h8.9c.58 0 1.02-.5.9-1.05C36.8 30.35 34.7 28.6 32 28.6z"
  />
  <path fill="#ffffff" d="M21.6 41.2h20.8v9.2c0 1.2-.7 2.2-1.7 2.6-3.4.7-14 .7-17.4 0-1-.4-1.7-1.4-1.7-2.6v-9.2z" />
  <path fill="none" stroke="rgba(0,0,0,0.55)" stroke-width="1.15" d="M24.8 41.4v9.2M28 41.4v9.2M31.2 41.4v9.2M34.4 41.4v9.2M37.6 41.4v9.2M25.2 46h13.6" />
  <path fill="none" stroke="#ffffff" stroke-width="1.15" stroke-linecap="round" d="M17.6 29.4c2.5 2.1 5.5 3.2 8.7 3.2M46.4 29.4c-2.5 2.1-5.5 3.2-8.7 3.2" />
</svg>
