<svg xmlns="http://www.w3.org/2000/svg" viewBox="0 0 64 64" fill="none" aria-hidden="true">
  <!-- 흰색 두개골: 둥근 두개 · 큰 원형 눈 · 역하트 코 · 윗니 · 아래턱 없음 -->
  <path
    fill="#ffffff"
    fill-rule="evenodd"
    d="M32 4C17.5 4 8 14.8 8 28c0 9.2 4.6 15.5 11.2 19.2v1.6c0 1 .4 1.9 1.1 2.55L24 56.2c.35.4.85.6 1.35.6h13.3c.5 0 1-.2 1.35-.6l3.7-4.85c.7-.65 1.1-1.55 1.1-2.55v-1.6C51.4 43.5 56 37.2 56 28 56 14.8 46.5 4 32 4zM20.2 23.5a6.6 7.1 0 1 0 13.2 0 6.6 7.1 0 1 0-13.2 0zm10.4 0a6.6 7.1 0 1 0 13.2 0 6.6 7.1 0 1 0-13.2 0zM32 31.5c-2.6 0-4.6 1.7-4.6 3.5 0 .55.2 1.05.55 1.45L32 41.2l4.05-4.75c.35-.4.55-.9.55-1.45 0-1.8-2-3.5-4.6-3.5z"
  />
  <path
    fill="#ffffff"
    d="M22 43.2h20v7.6c0 1.05-.6 1.95-1.5 2.25-3.1.9-13.9.9-17 0-.9-.3-1.5-1.2-1.5-2.25v-7.6z"
  />
  <path
    fill="none"
    stroke="rgba(0,0,0,0.5)"
    stroke-width="1.25"
    stroke-linecap="round"
    d="M25.4 43.5v8.5M28.7 43.5v8.5M32 43.5v8.5M35.3 43.5v8.5M38.6 43.5v8.5"
  />
</svg>
